<svg width="121" height="81" viewBox="0 0 121 81" fill="none" xmlns="http://www.w3.org/2000/svg">
<path fill-rule="evenodd" clip-rule="evenodd" d="M15.465 52.5923H10.431V30.069H15.465V52.5923ZM28.0382 30.069H23.1118C23.1118 34.2138 21.2553 38.0183 18.0188 40.5071L16.067 42.0075L23.6292 52.5931H29.8469L22.8886 42.8526C26.1871 39.4811 28.0382 34.9451 28.0382 30.069ZM36.0684 52.586H31.3144V30.0734H36.0684V52.586ZM50.4374 37.0131V38.0093C49.1544 37.1108 47.6056 36.5827 45.9351 36.5827C41.5141 36.5827 37.9304 40.2615 37.9304 44.7999C37.9304 49.3382 41.5141 53.0172 45.9351 53.0172C47.6056 53.0172 49.1544 52.4892 50.4374 51.5909V52.586H54.9797V37.0131H50.4374ZM50.4224 44.7999C50.4224 47.0127 48.5796 48.8069 46.3067 48.8069C44.0338 48.8069 42.191 47.0127 42.191 44.7999C42.191 42.587 44.0338 40.7935 46.3067 40.7935C48.5796 40.7935 50.4224 42.587 50.4224 44.7999ZM98.3551 38.0093V37.0131H102.897V52.586H98.3551V51.5909C97.072 52.4892 95.5233 53.0172 93.8526 53.0172C89.4315 53.0172 85.8478 49.3382 85.8478 44.7999C85.8478 40.2615 89.4315 36.5827 93.8526 36.5827C95.5233 36.5827 97.072 37.1108 98.3551 38.0093ZM94.2244 48.8069C96.4975 48.8069 98.3398 47.0127 98.3398 44.7999C98.3398 42.587 96.4975 40.7935 94.2244 40.7935C91.9512 40.7935 90.1087 42.587 90.1087 44.7999C90.1087 47.0127 91.9512 48.8069 94.2244 48.8069ZM104.868 49.9885C104.868 48.3725 106.145 47.0626 107.719 47.0626C109.293 47.0626 110.569 48.3725 110.569 49.9885C110.569 51.6043 109.293 52.9144 107.719 52.9144C106.145 52.9144 104.868 51.6043 104.868 49.9885ZM77.7767 36.5942C75.9623 36.5942 74.2454 37.1725 73.0974 38.7678V37.014H68.5749V52.586H73.1528V44.4025C73.1528 42.0342 74.6998 40.8747 76.5623 40.8747C78.5586 40.8747 79.7062 42.0987 79.7062 44.3701V52.586H84.2429V42.6828C84.2429 39.0589 81.4359 36.5942 77.7767 36.5942ZM62.006 37.0133V39.0415C62.9165 37.8249 64.613 37.0142 66.4576 37.0142V41.5458L66.443 41.5452L66.4321 41.5448L66.4204 41.5441L66.4036 41.5437C64.6065 41.5437 62.0165 42.8622 62.0165 45.3154V52.586H57.3557V37.0133H62.006Z" fill="black"/>
</svg>
