<svg width="121" height="81" viewBox="0 0 121 81" fill="none" xmlns="http://www.w3.org/2000/svg">
<mask id="mask0_1_26" style="mask-type:luminance" maskUnits="userSpaceOnUse" x="24" y="61" width="76" height="11">
<path d="M34.5455 71.1841V66.9648C34.5455 65.4103 33.6572 64.411 31.9917 64.3C31.1034 64.3 30.3262 64.5221 29.66 65.5214C29.2159 64.7441 28.4386 64.3 27.4393 64.3C26.7731 64.3 25.9959 64.5221 25.4407 65.2993V64.5221H24.1083V71.1841H25.4407V67.409C25.4407 66.2986 26.1069 65.6324 27.1062 65.6324C28.1055 65.6324 28.5497 66.2986 28.5497 67.409V71.1841H29.8821V67.409C29.8821 66.2986 30.5483 65.6324 31.5476 65.6324C32.5469 65.6324 33.1021 66.2986 33.1021 67.409V71.1841H34.5455ZM56.0862 64.5221H53.6434V62.5234H52.311V64.5221H50.8676V65.7434H52.311V68.8524C52.311 70.4069 52.8662 71.2952 54.5317 71.2952C55.1979 71.2952 55.8641 71.0731 56.3083 70.74L55.8641 69.5186C55.42 69.7407 54.9759 69.8517 54.6428 69.8517C53.9766 69.8517 53.6434 69.4076 53.6434 68.7414V65.6324H56.0862V64.5221V64.5221ZM68.411 64.411C67.6338 64.411 66.9676 64.7441 66.6345 65.4103V64.6331H65.3021V71.2952H66.6345V67.52C66.6345 66.4097 67.1897 65.7434 68.0779 65.7434C68.411 65.7434 68.6331 65.7434 68.9662 65.9655L69.4103 64.7441C69.0772 64.411 68.6331 64.411 68.411 64.411ZM49.7572 65.0772C49.091 64.6331 48.0917 64.411 47.0924 64.411C45.4269 64.411 44.4276 65.1883 44.4276 66.5207C44.4276 67.631 45.2048 68.2972 46.6483 68.4083L47.3145 68.5193C48.0917 68.6303 48.5359 68.8524 48.5359 69.2965C48.5359 69.8517 47.9807 70.1848 46.9814 70.1848C45.9821 70.1848 45.3159 69.8517 44.7607 69.5186L44.0945 70.5179C45.0938 71.1841 46.2041 71.4062 46.9814 71.4062C48.869 71.4062 49.9793 70.5179 49.9793 69.2965C49.9793 68.1862 49.2021 67.52 47.7586 67.2979L47.0924 67.1869C46.4262 67.0759 45.871 66.9648 45.871 66.5207C45.871 66.0765 46.4262 65.7434 47.2034 65.7434C48.0917 65.7434 48.869 66.0765 49.3131 66.2986L49.7572 65.0772ZM69.8545 67.8531C69.8545 69.8517 71.1869 71.2952 73.2965 71.2952C74.2959 71.2952 74.9621 71.0731 75.6283 70.5179L74.9621 69.5186C74.4069 69.8517 73.8517 70.0738 73.1855 70.0738C72.0752 70.0738 71.1869 69.1855 71.1869 67.8531C71.1869 66.5207 72.0752 65.6324 73.1855 65.6324C73.8517 65.6324 74.4069 65.8545 74.9621 66.1876L75.6283 65.1883C74.9621 64.6331 74.2959 64.411 73.2965 64.411C71.1869 64.411 69.8545 65.8545 69.8545 67.8531ZM60.5276 64.411C58.64 64.411 57.3076 65.8545 57.3076 67.8531C57.3076 69.9628 58.64 71.2952 60.6386 71.2952C61.6379 71.2952 62.5262 71.0731 63.3034 70.4069L62.6372 69.4076C62.0821 69.8517 61.4159 70.0738 60.7497 70.0738C59.8614 70.0738 58.8621 69.5186 58.751 68.4083H63.7476C63.7476 68.1862 63.7476 68.0752 63.7476 67.8531C63.6366 65.7434 62.4152 64.411 60.5276 64.411ZM60.5276 65.6324C61.5269 65.6324 62.1931 66.2986 62.3041 67.2979H58.751C58.8621 66.2986 59.5283 65.6324 60.5276 65.6324ZM42.651 67.8531V64.5221H41.3186V65.2993C40.8745 64.7441 40.0972 64.3 39.209 64.3C37.3214 64.3 35.989 65.7434 35.989 67.7421C35.989 69.7407 37.4324 71.1841 39.209 71.1841C40.0972 71.1841 40.8745 70.851 41.3186 70.1848V70.9621H42.651V67.8531ZM37.2103 67.8531C37.2103 66.6317 37.9876 65.6324 39.32 65.6324C40.5414 65.6324 41.3186 66.6317 41.3186 67.8531C41.3186 69.1855 40.5414 70.0738 39.32 70.0738C38.0986 70.0738 37.2103 69.0745 37.2103 67.8531ZM88.3972 64.411C87.62 64.411 86.9538 64.7441 86.6207 65.4103V64.6331H85.2883V71.2952H86.6207V67.52C86.6207 66.4097 87.1759 65.7434 88.0641 65.7434C88.3972 65.7434 88.6193 65.7434 88.9524 65.9655L89.3966 64.7441C89.0634 64.411 88.6193 64.411 88.3972 64.411ZM99.0566 70.1848C99.1676 70.1848 99.2786 70.1848 99.2786 70.1848C99.3897 70.1848 99.3897 70.2959 99.5007 70.2959C99.6117 70.4069 99.6117 70.4069 99.6117 70.5179C99.6117 70.629 99.6117 70.629 99.6117 70.74C99.6117 70.851 99.6117 70.9621 99.6117 70.9621C99.6117 71.0731 99.5007 71.0731 99.5007 71.1841C99.3897 71.2952 99.3897 71.2952 99.2786 71.2952C99.1676 71.2952 99.0566 71.2952 99.0566 71.2952C98.9455 71.2952 98.8345 71.2952 98.8345 71.2952C98.7234 71.2952 98.7235 71.1841 98.6124 71.1841C98.5014 71.0731 98.5014 71.0731 98.5014 70.9621C98.5014 70.851 98.5014 70.851 98.5014 70.74C98.5014 70.629 98.5014 70.5179 98.5014 70.5179C98.5014 70.4069 98.6124 70.4069 98.6124 70.2959C98.7235 70.1848 98.7234 70.1848 98.8345 70.1848C98.8345 70.1848 98.9455 70.1848 99.0566 70.1848ZM99.0566 71.4062C99.1676 71.4062 99.1676 71.4062 99.2786 71.4062C99.3897 71.4062 99.3897 71.2952 99.3897 71.2952L99.5007 71.1841C99.5007 71.0731 99.5007 71.0731 99.5007 70.9621C99.5007 70.851 99.5007 70.851 99.5007 70.74C99.5007 70.629 99.3897 70.629 99.3897 70.629L99.2786 70.5179C99.1676 70.5179 99.1676 70.5179 99.0566 70.5179C98.9455 70.5179 98.9455 70.5179 98.8345 70.5179C98.7234 70.5179 98.7234 70.629 98.7234 70.629L98.6124 70.74C98.6124 70.851 98.6124 70.851 98.6124 70.9621C98.6124 71.0731 98.6124 71.0731 98.6124 71.1841C98.6124 71.2952 98.7234 71.2952 98.7234 71.2952L98.8345 71.4062C98.9455 71.4062 98.9455 71.4062 99.0566 71.4062ZM99.0566 70.5179C99.1676 70.5179 99.1676 70.5179 99.2786 70.5179L99.3897 70.629V70.74C99.3897 70.74 99.2786 70.74 99.2786 70.851L99.5007 71.0731H99.3897L99.1676 70.851H99.0566V71.0731H98.9455V70.4069H99.0566V70.5179V70.5179ZM98.9455 70.629L99.1676 70.74C99.1676 70.74 99.1676 70.74 99.1676 70.629C99.1676 70.629 99.1676 70.629 99.1676 70.5179C99.1676 70.5179 99.1676 70.5179 98.9455 70.629ZM83.2897 67.8531V64.5221H81.9572V65.2993C81.5131 64.7441 80.7359 64.3 79.8476 64.3C77.96 64.3 76.6276 65.7434 76.6276 67.7421C76.6276 69.7407 78.071 71.1841 79.8476 71.1841C80.7359 71.1841 81.5131 70.851 81.9572 70.1848V70.9621H83.2897V67.8531ZM77.96 67.8531C77.96 66.6317 78.7372 65.6324 80.0697 65.6324C81.291 65.6324 82.0683 66.6317 82.0683 67.8531C82.0683 69.1855 81.291 70.0738 80.0697 70.0738C78.7372 70.0738 77.96 69.0745 77.96 67.8531ZM96.6138 67.8531V61.8572H95.2814V65.2993C94.8372 64.7441 94.06 64.3 93.1717 64.3C91.2841 64.3 89.9517 65.7434 89.9517 67.7421C89.9517 69.7407 91.3952 71.1841 93.1717 71.1841C94.06 71.1841 94.8372 70.851 95.2814 70.1848V70.9621H96.6138V67.8531ZM91.2841 67.8531C91.2841 66.6317 92.0614 65.6324 93.3938 65.6324C94.6152 65.6324 95.3924 66.6317 95.3924 67.8531C95.3924 69.1855 94.6152 70.0738 93.3938 70.0738C92.0614 70.0738 91.2841 69.0745 91.2841 67.8531Z" fill="white"/>
</mask>
<g mask="url(#mask0_1_26)">
<path d="M105.274 56.3055H18.5565V77.069H105.274V56.3055Z" fill="black"/>
</g>
<mask id="mask1_1_26" style="mask-type:luminance" maskUnits="userSpaceOnUse" x="48" y="14" width="25" height="40">
<path d="M72.1861 14.2234H48.2027V53.4186H72.1861V14.2234Z" fill="white"/>
</mask>
<g mask="url(#mask1_1_26)">
<path d="M77.7379 8.67172H42.651V58.9703H77.7379V8.67172Z" fill="#3D3D3D"/>
</g>
<mask id="mask2_1_26" style="mask-type:luminance" maskUnits="userSpaceOnUse" x="20" y="8" width="41" height="51">
<path d="M50.7566 33.7655C50.7566 25.771 54.5317 18.7759 60.3055 14.2235C56.0862 10.8924 50.7565 8.8938 44.8717 8.8938C31.1034 8.8938 20 19.9972 20 33.7655C20 47.5338 31.1034 58.6372 44.8717 58.6372C50.6455 58.6372 55.9752 56.6386 60.3055 53.3076C54.4207 48.7552 50.7566 41.649 50.7566 33.7655Z" fill="white"/>
</mask>
<g mask="url(#mask2_1_26)">
<path d="M65.7463 3.34207H14.3373V64.3H65.7463V3.34207Z" fill="black"/>
</g>
<mask id="mask3_1_26" style="mask-type:luminance" maskUnits="userSpaceOnUse" x="60" y="8" width="41" height="51">
<path d="M100.5 33.7655C100.5 47.5338 89.3966 58.6372 75.6283 58.6372C69.8545 58.6372 64.5249 56.6386 60.1945 53.3076C65.9683 48.7552 69.7435 41.649 69.7435 33.7655C69.7435 25.771 65.9683 18.7759 60.1945 14.2235C64.4138 10.8924 69.7435 8.8938 75.6283 8.8938C89.3966 8.8938 100.5 19.9972 100.5 33.7655Z" fill="white"/>
</mask>
<g mask="url(#mask3_1_26)">
<path d="M106.052 3.34207H54.6428V64.3H106.052V3.34207Z" fill="#838282"/>
</g>
</svg>
