<svg width="121" height="81" viewBox="0 0 121 81" fill="none" xmlns="http://www.w3.org/2000/svg">
<path d="M18 66.7846V54H21.7527C24.4709 54 26.2154 55.0689 26.2154 57.3137C26.2154 58.5751 25.6677 59.4516 24.8766 59.9647C26.0126 60.5206 26.6617 61.5681 26.6617 63.0219C26.6617 65.6088 24.8766 66.806 22.0976 66.806L18 66.7846ZM20.3936 59.302H22.1787C23.2741 59.302 23.7406 58.7461 23.7406 57.6986C23.7406 56.5868 22.8887 56.2234 21.7527 56.2234H20.3936V59.302ZM20.3936 64.5612H21.8744C23.3349 64.5612 24.1869 64.1764 24.1869 62.9792C24.1869 61.7819 23.4567 61.2902 22.0976 61.2902H20.3936V64.5612ZM31.3272 66.9984C28.9539 66.9984 27.7571 65.7798 27.7571 64.1336C27.7571 62.3164 29.1567 61.2688 31.2461 61.2475C31.7532 61.2475 32.2806 61.3116 32.7877 61.3971V60.9482C32.7877 59.8364 32.1792 59.302 31.0229 59.302C30.2318 59.302 29.461 59.4302 28.7307 59.7509L28.3048 57.7841C29.0553 57.4634 30.2521 57.2282 31.3069 57.2282C33.8628 57.2282 35.1205 58.6606 35.1205 61.1192V66.2074C34.3902 66.5708 33.0717 66.9984 31.3272 66.9984ZM32.7877 64.9246V62.9792C32.382 62.8936 31.9763 62.8295 31.5503 62.8295C30.7592 62.8295 30.1304 63.1502 30.1304 64.0267C30.1304 64.7964 30.6578 65.2026 31.5706 65.2026C31.9966 65.2026 32.4023 65.117 32.7877 64.9246ZM36.8042 66.7846V58.0406C38.0415 57.5061 39.3803 57.2496 40.7192 57.2282C43.2548 57.2282 44.7153 58.5537 44.7153 60.9695V66.7846H42.3217V61.1619C42.3217 59.9006 41.774 59.3234 40.7192 59.3234C40.1917 59.3234 39.6643 59.4302 39.1978 59.644V66.7846H36.8042ZM53.0524 57.7627L52.6061 59.7509C51.9773 59.473 51.3282 59.3234 50.6385 59.302C49.2388 59.302 48.468 60.3495 48.468 62.0599C48.468 63.9412 49.2591 64.9033 50.7602 64.9033C51.4296 64.8819 52.0787 64.7322 52.6873 64.4329L53.0727 66.4639C52.2816 66.8274 51.4296 67.0198 50.5776 66.9984C47.6972 66.9984 46.0338 65.117 46.0338 62.1454C46.0338 59.1951 47.6769 57.2282 50.4356 57.2282C51.3485 57.2282 52.241 57.3993 53.0524 57.7627ZM58.2251 66.9984C55.5474 66.9984 53.8841 65.0529 53.8841 62.1026C53.8841 59.1737 55.5474 57.2282 58.2251 57.2282C60.9027 57.2282 62.5458 59.1737 62.5458 62.1026C62.5458 65.0529 60.923 66.9984 58.2251 66.9984ZM58.2251 64.9246C59.4624 64.9246 60.0913 63.8557 60.0913 62.1026C60.0913 60.3923 59.4422 59.302 58.2251 59.302C57.008 59.302 56.3386 60.3709 56.3386 62.1026C56.3386 63.8343 57.008 64.9246 58.2251 64.9246ZM63.9251 66.7846V58.0406C65.1625 57.5061 66.5013 57.2496 67.8401 57.2282C70.3758 57.2282 71.8363 58.5537 71.8363 60.9695V66.7846H69.4426V61.1619C69.4426 59.9006 68.8949 59.3234 67.8401 59.3234C67.3127 59.3234 66.7853 59.4302 66.3188 59.644V66.7846H63.9251ZM77.2321 66.9984C75.163 66.9984 74.1082 65.8012 74.1082 63.4067V59.4516H72.9317V57.442H74.1082V55.411L76.5018 55.2827V57.442H78.4289V59.4516H76.5018V63.364C76.5018 64.4329 76.9278 64.9246 77.6986 64.9246C78.0029 64.9246 78.3072 64.8819 78.6114 64.8177L78.7332 66.8487C78.2463 66.9556 77.7392 66.9984 77.2321 66.9984ZM83.277 66.9984C80.9036 66.9984 79.7068 65.7798 79.7068 64.1336C79.7068 62.3164 81.1065 61.2688 83.1958 61.2475C83.703 61.2475 84.2304 61.3116 84.7375 61.3971V60.9482C84.7375 59.8364 84.129 59.302 82.9727 59.302C82.1816 59.302 81.4108 59.4302 80.6805 59.7509L80.2545 57.7841C81.0051 57.4634 82.2019 57.2282 83.2567 57.2282C85.8126 57.2282 87.0703 58.6606 87.0703 61.1192V66.2074C86.34 66.5708 85.0012 66.9984 83.277 66.9984ZM84.7172 64.9246V62.9792C84.3115 62.8936 83.9058 62.8295 83.4798 62.8295C82.6887 62.8295 82.0599 63.1502 82.0599 64.0267C82.0599 64.7964 82.5873 65.2026 83.5001 65.2026C83.9261 65.2026 84.3521 65.117 84.7172 64.9246ZM95.2248 57.7627L94.7786 59.7509C94.1497 59.473 93.5006 59.3234 92.8109 59.302C91.4113 59.302 90.6404 60.3495 90.6404 62.0599C90.6404 63.9412 91.4315 64.9033 92.9326 64.9033C93.602 64.8819 94.2511 64.7322 94.8597 64.4329L95.2451 66.4639C94.454 66.8274 93.602 67.0198 92.7501 66.9984C89.8696 66.9984 88.2062 65.117 88.2062 62.1454C88.2062 59.1951 89.8493 57.2282 92.6081 57.2282C93.5209 57.2282 94.3931 57.3993 95.2248 57.7627ZM100.499 66.9984C98.4298 66.9984 97.375 65.8012 97.375 63.4067V59.4516H96.1985V57.442H97.375V55.411L99.7687 55.2827V57.442H101.696V59.4516H99.7687V63.364C99.7687 64.4329 100.195 64.9246 100.965 64.9246C101.27 64.9246 101.574 64.8819 101.878 64.8177L102 66.8487C101.513 66.9556 101.006 66.9984 100.499 66.9984Z" fill="black"/>
<path d="M34.6783 48C47.3391 48 53.6696 39.5 60 31H18V48H34.6783Z" fill="black"/>
<path d="M85.3095 14C72.6548 14 66.3274 22.5 60 31H102V14H85.3095Z" fill="#838282"/>
</svg>
