<svg width="121" height="81" viewBox="0 0 121 81" fill="none" xmlns="http://www.w3.org/2000/svg">
<path d="M52.066 24.6247L45.1938 56.2783H53.5237L60.1876 24.6247H52.066Z" fill="black"/>
<path d="M39.9877 24.6247L31.4495 46.0742L27.9092 27.7484C27.4927 25.666 25.8268 24.6247 24.1608 24.6247H10.2082L10 25.4578C12.9155 26.0825 16.0392 27.1237 18.1217 28.1649C19.3712 28.7897 19.5794 29.4144 19.9959 30.8721L26.4516 56.0702H35.1979L48.5258 24.4165H39.9877V24.6247Z" fill="black"/>
<path d="M104.753 24.6247H97.6721C96.0061 24.6247 94.7567 25.4578 94.132 26.9155L81.8453 56.2783H90.3834L92.0495 51.4887H102.462L103.503 56.2783H111L104.753 24.6247ZM94.7567 45.0329L99.1298 33.1629L101.629 45.0329H94.7567Z" fill="black"/>
<path d="M71.0165 33.3711C71.0165 32.3299 72.0578 31.0804 74.5567 30.6639C75.8062 30.4557 78.93 30.4557 82.6784 32.1217L84.1361 25.4578C82.2618 24.833 79.5547 24 76.431 24C68.3094 24 62.6866 28.3732 62.6866 34.4124C62.6866 38.9938 66.8516 41.4927 69.7671 42.9505C72.8908 44.4082 73.932 45.4495 73.932 46.9072C73.932 48.9897 71.433 50.0309 68.934 50.0309C64.7691 50.0309 62.4783 48.9897 60.6041 47.9485L59.1464 54.8206C61.0206 55.6536 64.5608 56.4865 68.3093 56.4865C76.8474 56.4865 82.4701 52.3217 82.4701 45.6578C82.4701 37.7444 70.8082 37.1196 71.0165 33.3711Z" fill="black"/>
</svg>
