<svg width="121" height="81" viewBox="0 0 121 81" fill="none" xmlns="http://www.w3.org/2000/svg">
<path d="M60.4425 36.9364C67.8693 36.9364 73.9107 30.8949 73.9107 23.4682C73.9107 16.0414 67.8693 10 60.4425 10C53.0158 10 46.9744 16.0414 46.9744 23.4682C46.9744 30.8949 53.0158 36.9364 60.4425 36.9364Z" fill="#838282"/>
<path d="M70.3705 34.3582C67.7923 37.1288 63.2901 39.9378 57.4795 39.9378C52.9773 39.9378 49.0908 38.2062 46.628 36.2437C31.9285 37.7829 21 39.9378 21 39.9378V45.9023H99V33.627C99 33.627 85.6473 33.5501 70.3705 34.3582Z" fill="#838282"/>
<path d="M30.2738 63.334V70.5683H21V51.2896H30.2738V59.9477H30.3123L35.7765 51.2896H46.8974L38.7395 61.256L46.4356 70.5683H35.815L30.3123 63.334H30.2738Z" fill="black"/>
<path d="M48.3981 51.2896H67.1381C71.9867 51.2896 73.6029 53.1751 73.6029 56.1381C73.6029 59.4475 70.6399 60.8712 67.6384 61.0252V61.0636C70.7553 61.2945 73.7568 61.6409 73.7568 65.5659C73.7568 68.1056 72.1791 70.6068 66.7918 70.6068H48.3981V51.2896ZM57.6719 66.6433H62.5205C64.3291 66.6433 64.9448 65.9122 64.9448 64.7963C64.9448 63.6803 64.3291 62.9107 62.5205 62.9107H57.6719V66.6433ZM57.6719 59.4475H62.2896C64.0597 59.4475 64.7908 58.7163 64.7908 57.6004C64.7908 56.3305 64.0982 55.7149 62.4435 55.7149H57.6719V59.4475Z" fill="black"/>
<path d="M99 69.7602C96.8066 70.4144 93.9206 70.8377 91.3809 70.8377C82.2225 70.8377 75.4884 68.221 75.4884 60.6404C75.4884 53.7908 82.0301 50.8278 90.9191 50.8278C93.3818 50.8278 96.5372 51.0972 99 51.9053V58.5239C97.1914 57.408 95.3443 56.7154 92.7277 56.7154C89.3414 56.7154 85.9166 58.4085 85.9166 60.8328C85.9166 63.257 89.3029 64.9502 92.7277 64.9502C95.3059 64.9502 97.1529 64.2575 99 63.1801V69.7602Z" fill="black"/>
</svg>
