<svg width="121" height="81" viewBox="0 0 121 81" fill="none" xmlns="http://www.w3.org/2000/svg">
<path fill-rule="evenodd" clip-rule="evenodd" d="M66.1392 72.2212L24.3864 72.225V9.4142H66.1392C83.2327 9.6539 97 21.1887 97 40.8196C97 60.4505 83.2327 71.9815 66.1392 72.2212ZM65.7761 68.9574H27.654V12.6818H65.7761C82.1714 12.7623 93.7324 23.7522 93.7324 40.8196C93.7324 57.887 82.1714 68.8769 65.7761 68.9574Z" fill="black"/>
<path fill-rule="evenodd" clip-rule="evenodd" d="M32.0107 44.9949H42.9028V64.6006H32.0107V44.9949ZM37.4568 42.0903C41.2666 42.0903 44.3551 39.0019 44.3551 35.192C44.3551 31.3822 41.2666 28.2937 37.4568 28.2937C33.6469 28.2937 30.5585 31.3822 30.5585 35.192C30.5585 39.0019 33.6469 42.0903 37.4568 42.0903Z" fill="black"/>
<path fill-rule="evenodd" clip-rule="evenodd" d="M89.2669 38.0966C87.5379 17.0386 65.7762 17.0387 65.7762 17.0387H48.712V64.6006H65.7762C65.7762 64.6006 89.014 64.6006 89.3715 41.3642H81.3882V28.6568H84.6558V38.0966H89.2669ZM58.1518 28.6568H65.7762V31.9244H61.4194V33.3767H65.4132V36.2813H61.4194V38.0966H66.1393V41.3642H58.1518V28.6568ZM53.2989 35.0105C53.2989 31.9244 51.2535 31.9244 51.2535 31.9244H48.712V28.6568H50.8904C50.8904 28.6568 56.3365 28.6568 56.3365 35.0105C56.3365 41.3642 50.8904 41.3642 50.8904 41.3642H48.712V38.0966H51.2535C51.2535 38.0966 53.2989 38.0966 53.2989 35.0105ZM71.4856 28.6568H75.9422L79.7722 41.3642H76.4676L75.7807 38.9491H71.5918L70.8855 41.3642H67.5844L71.4856 28.6568ZM73.7153 32.0159L74.8575 35.7624H72.5519L73.7153 32.0159Z" fill="#838282"/>
</svg>
